<?xml version="1.0" encoding="utf-8"?>
<!-- Generator: Adobe Illustrator 23.0.6, SVG Export Plug-In . SVG Version: 6.00 Build 0)  -->
<svg version="1.1" id="Layer_1" xmlns="http://www.w3.org/2000/svg" xmlns:xlink="http://www.w3.org/1999/xlink" x="0px" y="0px"
	 viewBox="0 0 170 129" style="enable-background:new 0 0 170 129;" xml:space="preserve">
<style type="text/css">
	.st0{fill:#FFFFFF;}
</style>
<g>
	<path class="st0" d="M12.79,23.03c4.26,2.88,9.44,4.57,14.96,4.57c3.68,0,7.21-0.75,10.41-2.1c4.81-2.03,8.88-5.42,11.76-9.68
		c2.88-4.26,4.57-9.44,4.57-14.96h-5.93h-5.93c0,2.07-0.42,4.01-1.17,5.79c-1.13,2.66-3.02,4.95-5.4,6.55
		c-2.38,1.61-5.21,2.54-8.32,2.54c-2.07,0-4.01-0.42-5.79-1.17c-2.66-1.13-4.95-3.02-6.55-5.4c-1.61-2.38-2.54-5.21-2.54-8.32H1
		c0,3.68,0.75,7.21,2.1,10.41C5.14,16.08,8.52,20.15,12.79,23.03z"/>
</g>
<g>
	<path class="st0" d="M69.35,69.64c-2.07,0-4.01-0.42-5.79-1.17c-2.66-1.13-4.95-3.02-6.55-5.4c-1.61-2.38-2.54-5.21-2.54-8.32
		c0-2.07,0.42-4.01,1.17-5.79c1.13-2.66,3.02-4.95,5.4-6.55c2.38-1.61,5.21-2.54,8.32-2.54V28.01c-3.68,0-7.21,0.75-10.41,2.1
		c-4.81,2.03-8.88,5.42-11.76,9.68c-2.88,4.26-4.57,9.44-4.57,14.96c0,3.68,0.75,7.21,2.1,10.41c2.03,4.81,5.42,8.88,9.68,11.76
		c4.26,2.88,9.44,4.57,14.96,4.57v-5.93V69.64z"/>
</g>
<g>
	<path class="st0" d="M85.91,65.04c2.05,4.85,5.46,8.95,9.76,11.86c4.22,2.85,9.32,4.54,14.77,4.6V69.63
		c-1.99-0.04-3.85-0.45-5.57-1.18c-2.7-1.14-5.02-3.06-6.65-5.48c-1.63-2.42-2.57-5.29-2.58-8.44V28.01H83.78v26.53
		C83.78,58.25,84.54,61.81,85.91,65.04z"/>
</g>
<g>
	<circle class="st0" cx="43.73" cy="97.13" r="1.12"/>
	<circle class="st0" cx="49.98" cy="97.13" r="1.12"/>
	<circle class="st0" cx="56.24" cy="97.13" r="1.12"/>
	<circle class="st0" cx="62.49" cy="97.13" r="1.12"/>
	<circle class="st0" cx="68.74" cy="97.13" r="1.12"/>
</g>
<g>
	<path class="st0" d="M42.42,112.99h3.52v1.24h-1.11v5.06c0,0.61,0.07,1.12,0.2,1.55c0.14,0.43,0.33,0.78,0.57,1.05
		c0.24,0.27,0.53,0.47,0.86,0.59c0.33,0.12,0.7,0.19,1.09,0.19c0.41,0,0.79-0.05,1.13-0.16c0.34-0.11,0.64-0.3,0.89-0.56
		c0.25-0.26,0.44-0.61,0.57-1.04c0.14-0.43,0.2-0.97,0.2-1.62v-5.06h-1.18v-1.24h3.52v1.24h-0.97v4.9c0,0.78-0.11,1.48-0.33,2.09
		c-0.22,0.61-0.52,1.12-0.89,1.53c-0.38,0.41-0.82,0.72-1.33,0.94c-0.51,0.21-1.06,0.32-1.65,0.32c-0.57,0-1.11-0.11-1.61-0.32
		c-0.5-0.21-0.93-0.52-1.31-0.92c-0.37-0.41-0.66-0.9-0.87-1.49c-0.21-0.59-0.32-1.26-0.32-2.01v-5.03h-1V112.99z"/>
	<path class="st0" d="M57.87,122.63h1.05v-3.39c0-0.57-0.14-1-0.43-1.29c-0.29-0.29-0.7-0.44-1.24-0.44c-0.31,0-0.62,0.07-0.94,0.22
		c-0.32,0.15-0.61,0.33-0.9,0.55v4.35h1.05v1.23h-3.47v-1.23h1.03v-4.96h-1.03v-1.23h2.37v0.87h0.01c0.16-0.14,0.33-0.27,0.51-0.39
		c0.18-0.12,0.37-0.23,0.56-0.32c0.2-0.09,0.4-0.16,0.61-0.22c0.21-0.05,0.44-0.08,0.67-0.08c0.4,0,0.76,0.05,1.08,0.16
		c0.32,0.11,0.59,0.28,0.82,0.5c0.22,0.22,0.4,0.51,0.52,0.86s0.18,0.77,0.18,1.24v3.56h1.03v1.23h-3.47V122.63z"/>
	<path class="st0" d="M62.51,116.43h2.42v6.2h1.12v1.23h-3.53v-1.23h1.06v-4.96h-1.08V116.43z M63.33,113.8
		c0-0.12,0.03-0.24,0.08-0.35c0.05-0.11,0.12-0.21,0.2-0.29c0.08-0.08,0.18-0.15,0.3-0.2c0.11-0.05,0.24-0.08,0.37-0.08
		c0.12,0,0.24,0.03,0.35,0.08c0.11,0.05,0.21,0.12,0.29,0.2c0.08,0.08,0.15,0.18,0.2,0.29c0.05,0.11,0.08,0.23,0.08,0.35
		c0,0.13-0.03,0.25-0.08,0.37s-0.12,0.22-0.2,0.3c-0.08,0.09-0.18,0.16-0.29,0.21c-0.11,0.05-0.23,0.08-0.35,0.08
		c-0.13,0-0.25-0.03-0.37-0.08c-0.11-0.05-0.21-0.12-0.3-0.21c-0.08-0.09-0.15-0.19-0.2-0.3S63.33,113.93,63.33,113.8z"/>
	<path class="st0" d="M66.28,116.43h2.57v1.23h-0.7l1.84,5.12l1.79-5.12h-0.45v-1.23h2.35v1.23h-0.64l-2.43,6.31h-1.32l-2.42-6.31
		h-0.59V116.43z"/>
	<path class="st0" d="M75.69,120.32c0,0.21,0.02,0.4,0.05,0.58c0.03,0.17,0.08,0.34,0.13,0.5c0.18,0.48,0.46,0.84,0.85,1.08
		c0.39,0.24,0.83,0.36,1.32,0.36c0.39,0,0.76-0.05,1.13-0.16c0.37-0.11,0.75-0.28,1.15-0.51l0.54,0.91
		c-0.49,0.33-0.98,0.58-1.47,0.75c-0.49,0.16-1,0.24-1.53,0.24c-0.5,0-0.97-0.08-1.39-0.25c-0.43-0.17-0.8-0.42-1.1-0.75
		c-0.31-0.33-0.55-0.74-0.72-1.23c-0.17-0.49-0.26-1.07-0.26-1.72c0-0.53,0.07-1.03,0.22-1.5c0.15-0.47,0.37-0.88,0.66-1.23
		c0.29-0.35,0.66-0.63,1.09-0.84c0.43-0.21,0.94-0.31,1.52-0.31c0.56,0,1.03,0.08,1.4,0.25c0.38,0.17,0.68,0.39,0.92,0.67
		c0.24,0.28,0.42,0.6,0.54,0.96c0.12,0.36,0.21,0.72,0.25,1.1c0.02,0.18,0.04,0.37,0.05,0.55s0.01,0.37,0.01,0.54H75.69z
		 M77.77,117.36c-0.31,0-0.58,0.04-0.81,0.13c-0.23,0.09-0.43,0.22-0.59,0.38c-0.16,0.16-0.29,0.37-0.39,0.61
		c-0.1,0.24-0.17,0.51-0.22,0.8h3.85c-0.02-0.28-0.06-0.53-0.13-0.77c-0.07-0.23-0.18-0.44-0.32-0.61c-0.14-0.17-0.33-0.31-0.55-0.4
		C78.38,117.4,78.1,117.36,77.77,117.36z"/>
	<path class="st0" d="M87.65,118h-1.36v-0.46c-0.16,0-0.32,0.03-0.48,0.09c-0.16,0.06-0.32,0.15-0.46,0.27
		c-0.14,0.12-0.27,0.28-0.38,0.47c-0.11,0.19-0.19,0.41-0.23,0.67v3.59H86v1.23h-3.69v-1.23h1.03l0.01-4.96h-1.03v-1.23h2.37v1.03
		c0.09-0.15,0.18-0.3,0.29-0.43c0.11-0.13,0.23-0.25,0.36-0.34c0.13-0.1,0.28-0.17,0.44-0.23c0.16-0.05,0.33-0.08,0.52-0.08
		c0.25,0,0.48,0,0.7,0c0.22,0,0.44,0,0.66,0.01V118z"/>
	<path class="st0" d="M92.95,117.91c-0.09-0.14-0.21-0.26-0.36-0.34c-0.15-0.09-0.31-0.15-0.49-0.19c-0.18-0.04-0.36-0.06-0.53-0.06
		c-0.19,0-0.37,0.02-0.53,0.06c-0.16,0.04-0.3,0.11-0.41,0.19c-0.11,0.08-0.2,0.18-0.27,0.3c-0.06,0.12-0.1,0.25-0.1,0.39
		c0,0.25,0.08,0.45,0.23,0.59c0.15,0.15,0.4,0.28,0.76,0.41l1.43,0.5c0.61,0.21,1.06,0.49,1.34,0.84c0.28,0.35,0.42,0.78,0.42,1.27
		c0,0.33-0.07,0.63-0.2,0.91c-0.13,0.27-0.32,0.51-0.56,0.7c-0.24,0.19-0.53,0.34-0.87,0.45c-0.34,0.11-0.72,0.16-1.13,0.16
		c-0.58,0-1.05-0.09-1.41-0.28c-0.36-0.19-0.64-0.43-0.84-0.74h-0.75v-1.23h1.48c0,0.21,0.04,0.38,0.13,0.53
		c0.09,0.15,0.21,0.26,0.35,0.35c0.15,0.09,0.31,0.16,0.49,0.2c0.18,0.04,0.37,0.06,0.56,0.06c0.19,0,0.37-0.02,0.54-0.07
		c0.17-0.05,0.32-0.11,0.46-0.2c0.13-0.09,0.24-0.19,0.31-0.32c0.08-0.12,0.11-0.27,0.11-0.42c0-0.24-0.08-0.44-0.23-0.61
		c-0.16-0.17-0.42-0.32-0.79-0.45l-1.42-0.53c-0.58-0.21-1.01-0.47-1.29-0.79c-0.28-0.32-0.42-0.72-0.42-1.19
		c0-0.32,0.06-0.61,0.18-0.87c0.12-0.27,0.29-0.5,0.51-0.69c0.22-0.19,0.49-0.35,0.81-0.46c0.32-0.11,0.69-0.16,1.1-0.16
		c0.53,0,0.98,0.07,1.33,0.22c0.36,0.15,0.68,0.4,0.97,0.76h0.7v1.23h-1.47C93.09,118.22,93.05,118.05,92.95,117.91z"/>
	<path class="st0" d="M95.7,116.43h2.42v6.2h1.12v1.23h-3.53v-1.23h1.06v-4.96H95.7V116.43z M96.52,113.8
		c0-0.12,0.03-0.24,0.08-0.35c0.05-0.11,0.12-0.21,0.2-0.29c0.08-0.08,0.18-0.15,0.3-0.2c0.11-0.05,0.24-0.08,0.37-0.08
		c0.12,0,0.24,0.03,0.35,0.08c0.11,0.05,0.21,0.12,0.29,0.2c0.08,0.08,0.15,0.18,0.2,0.29c0.05,0.11,0.08,0.23,0.08,0.35
		c0,0.13-0.03,0.25-0.08,0.37s-0.12,0.22-0.2,0.3c-0.08,0.09-0.18,0.16-0.29,0.21c-0.11,0.05-0.23,0.08-0.35,0.08
		c-0.13,0-0.25-0.03-0.37-0.08c-0.11-0.05-0.21-0.12-0.3-0.21c-0.08-0.09-0.15-0.19-0.2-0.3S96.52,113.93,96.52,113.8z"/>
	<path class="st0" d="M102.08,116.43h1.74v1.08h-1.76l-0.02,4.29c0,0.29,0.03,0.53,0.1,0.71c0.07,0.18,0.17,0.31,0.32,0.38
		c0.15,0.07,0.32,0.1,0.5,0.1c0.2,0,0.38-0.02,0.53-0.05c0.15-0.04,0.32-0.1,0.5-0.18l0.31,0.9c-0.23,0.12-0.47,0.21-0.72,0.28
		c-0.25,0.07-0.55,0.1-0.9,0.1c-0.33,0-0.61-0.04-0.85-0.12c-0.24-0.08-0.44-0.21-0.61-0.4c-0.16-0.19-0.29-0.44-0.37-0.75
		c-0.08-0.31-0.12-0.7-0.12-1.17l0.02-4.09h-1.18v-1.08h1.2v-1.78l1.31-0.62V116.43z"/>
	<path class="st0" d="M104.84,116.43h2.82v1.23h-0.88l1.74,4.74l1.82-4.74h-0.87v-1.23h2.82v1.23h-0.77l-3.31,8.34h1.02v1.23h-3V126
		h0.9l0.79-2.04l-2.48-6.3h-0.6V116.43z"/>
	<path class="st0" d="M125,115.86c-0.32-0.54-0.74-0.97-1.27-1.28c-0.53-0.31-1.12-0.47-1.77-0.47c-0.55,0-1.06,0.12-1.52,0.35
		c-0.46,0.23-0.85,0.55-1.18,0.94c-0.33,0.39-0.58,0.85-0.76,1.37c-0.18,0.52-0.27,1.06-0.27,1.64c0,0.68,0.1,1.28,0.3,1.8
		c0.2,0.52,0.46,0.96,0.79,1.31c0.32,0.35,0.71,0.64,1.15,0.87c0.44,0.23,0.94,0.35,1.5,0.35c0.76,0,1.41-0.18,1.97-0.55
		c0.56-0.37,1.04-0.97,1.43-1.8l1.26,0.6c-0.18,0.52-0.49,1.01-0.92,1.5c-0.44,0.48-0.97,0.87-1.61,1.16s-1.34,0.44-2.12,0.44
		c-0.74,0-1.42-0.14-2.04-0.42c-0.62-0.28-1.17-0.68-1.66-1.19c-0.49-0.52-0.86-1.13-1.11-1.84c-0.26-0.71-0.38-1.45-0.38-2.22
		c0-0.77,0.13-1.51,0.38-2.19c0.26-0.69,0.61-1.29,1.08-1.8c0.46-0.51,1.01-0.91,1.65-1.2c0.64-0.29,1.33-0.44,2.08-0.44
		c0.66,0,1.24,0.09,1.72,0.28c0.48,0.19,0.89,0.41,1.23,0.67s0.63,0.54,0.87,0.85h0.76v1.28H125z"/>
	<path class="st0" d="M127.56,120.15c0-0.59,0.1-1.12,0.28-1.61c0.18-0.48,0.44-0.9,0.77-1.24c0.33-0.35,0.72-0.61,1.18-0.8
		c0.45-0.19,0.95-0.28,1.5-0.28c0.55,0,1.05,0.09,1.51,0.28c0.46,0.19,0.85,0.45,1.17,0.79c0.33,0.34,0.58,0.75,0.76,1.24
		c0.18,0.48,0.27,1.02,0.27,1.61c0,0.58-0.09,1.11-0.27,1.6c-0.18,0.49-0.44,0.9-0.76,1.25c-0.33,0.35-0.72,0.62-1.17,0.81
		c-0.46,0.19-0.96,0.29-1.51,0.29c-0.56,0-1.07-0.1-1.52-0.29c-0.45-0.19-0.84-0.46-1.17-0.81c-0.33-0.35-0.58-0.76-0.76-1.24
		C127.66,121.26,127.57,120.73,127.56,120.15z M128.97,120.15c0,0.43,0.06,0.81,0.18,1.15s0.29,0.64,0.5,0.88
		c0.21,0.24,0.46,0.43,0.74,0.56c0.28,0.13,0.58,0.2,0.89,0.2c0.33,0,0.64-0.06,0.92-0.19c0.28-0.13,0.53-0.31,0.74-0.56
		c0.21-0.24,0.38-0.53,0.49-0.88c0.12-0.34,0.18-0.73,0.18-1.16c0-0.45-0.06-0.85-0.18-1.2c-0.12-0.35-0.28-0.64-0.49-0.87
		s-0.46-0.41-0.74-0.53s-0.6-0.18-0.93-0.18c-0.32,0-0.61,0.06-0.89,0.18c-0.28,0.12-0.53,0.3-0.74,0.53
		c-0.21,0.23-0.38,0.53-0.5,0.87S128.97,119.7,128.97,120.15z"/>
	<path class="st0" d="M135.89,112.7h2.41v9.92h1.12v1.23h-3.53v-1.23h1.08v-8.69h-1.08V112.7z"/>
	<path class="st0" d="M140.53,112.7h2.41v9.92h1.12v1.23h-3.53v-1.23h1.08v-8.69h-1.08V112.7z"/>
	<path class="st0" d="M146.21,120.32c0,0.21,0.02,0.4,0.05,0.58c0.03,0.17,0.08,0.34,0.13,0.5c0.18,0.48,0.46,0.84,0.85,1.08
		c0.39,0.24,0.83,0.36,1.32,0.36c0.39,0,0.76-0.05,1.13-0.16c0.37-0.11,0.75-0.28,1.15-0.51l0.54,0.91
		c-0.49,0.33-0.98,0.58-1.47,0.75c-0.49,0.16-1,0.24-1.53,0.24c-0.5,0-0.97-0.08-1.39-0.25c-0.43-0.17-0.8-0.42-1.1-0.75
		c-0.31-0.33-0.55-0.74-0.72-1.23c-0.17-0.49-0.26-1.07-0.26-1.72c0-0.53,0.07-1.03,0.22-1.5c0.15-0.47,0.37-0.88,0.66-1.23
		s0.66-0.63,1.09-0.84c0.43-0.21,0.94-0.31,1.52-0.31c0.56,0,1.03,0.08,1.4,0.25c0.38,0.17,0.68,0.39,0.92,0.67
		c0.24,0.28,0.42,0.6,0.54,0.96c0.12,0.36,0.21,0.72,0.25,1.1c0.02,0.18,0.04,0.37,0.05,0.55s0.01,0.37,0.01,0.54H146.21z
		 M148.3,117.36c-0.31,0-0.58,0.04-0.81,0.13c-0.23,0.09-0.43,0.22-0.59,0.38c-0.16,0.16-0.29,0.37-0.39,0.61
		c-0.1,0.24-0.17,0.51-0.22,0.8h3.85c-0.02-0.28-0.06-0.53-0.13-0.77c-0.07-0.23-0.18-0.44-0.32-0.61c-0.14-0.17-0.33-0.31-0.55-0.4
		C148.9,117.4,148.63,117.36,148.3,117.36z"/>
	<path class="st0" d="M158.4,123.21c-0.24,0.26-0.53,0.46-0.85,0.6c-0.32,0.14-0.69,0.22-1.1,0.22c-0.5,0-0.97-0.09-1.4-0.26
		c-0.43-0.17-0.81-0.43-1.13-0.77c-0.32-0.34-0.57-0.75-0.75-1.24c-0.18-0.49-0.27-1.05-0.27-1.68c0-0.57,0.09-1.1,0.26-1.57
		c0.17-0.47,0.42-0.87,0.73-1.2c0.32-0.33,0.7-0.59,1.14-0.77c0.44-0.18,0.94-0.28,1.48-0.28c0.37,0,0.71,0.04,1.01,0.13
		c0.3,0.08,0.59,0.23,0.87,0.43v-0.38h1.33v7.13c0,1.18-0.28,2.07-0.84,2.67c-0.56,0.6-1.42,0.9-2.6,0.9
		c-0.26,0-0.53-0.02-0.81-0.06c-0.28-0.04-0.56-0.1-0.84-0.18c-0.27-0.08-0.54-0.19-0.8-0.32c-0.26-0.13-0.5-0.29-0.72-0.47
		l0.72-1.08c0.14,0.12,0.31,0.24,0.49,0.34c0.18,0.11,0.38,0.19,0.59,0.27c0.21,0.07,0.43,0.13,0.65,0.18
		c0.22,0.04,0.45,0.06,0.67,0.06c0.37,0,0.69-0.04,0.96-0.11c0.27-0.08,0.49-0.21,0.67-0.41c0.17-0.19,0.3-0.46,0.39-0.79
		s0.13-0.75,0.13-1.25V123.21z M156.63,122.86c0.22,0,0.42-0.02,0.6-0.06c0.18-0.04,0.35-0.1,0.49-0.17
		c0.15-0.07,0.28-0.15,0.39-0.24c0.11-0.09,0.21-0.19,0.29-0.29v-4.07c-0.24-0.22-0.52-0.37-0.84-0.47
		c-0.32-0.1-0.64-0.14-0.98-0.14c-0.32,0-0.61,0.06-0.89,0.18c-0.28,0.12-0.52,0.29-0.73,0.51s-0.37,0.5-0.49,0.82
		c-0.12,0.33-0.18,0.7-0.18,1.12c0,0.46,0.06,0.86,0.17,1.21c0.11,0.35,0.27,0.64,0.48,0.88c0.21,0.24,0.45,0.41,0.74,0.53
		C155.97,122.8,156.29,122.86,156.63,122.86z"/>
	<path class="st0" d="M162.65,120.32c0,0.21,0.02,0.4,0.05,0.58c0.03,0.17,0.08,0.34,0.13,0.5c0.18,0.48,0.46,0.84,0.85,1.08
		c0.39,0.24,0.83,0.36,1.32,0.36c0.39,0,0.76-0.05,1.13-0.16c0.37-0.11,0.75-0.28,1.15-0.51l0.54,0.91
		c-0.49,0.33-0.98,0.58-1.47,0.75c-0.49,0.16-1,0.24-1.53,0.24c-0.5,0-0.97-0.08-1.39-0.25c-0.43-0.17-0.8-0.42-1.1-0.75
		c-0.31-0.33-0.55-0.74-0.72-1.23c-0.17-0.49-0.26-1.07-0.26-1.72c0-0.53,0.07-1.03,0.22-1.5c0.15-0.47,0.37-0.88,0.66-1.23
		s0.66-0.63,1.09-0.84c0.43-0.21,0.94-0.31,1.52-0.31c0.56,0,1.03,0.08,1.4,0.25s0.68,0.39,0.92,0.67c0.24,0.28,0.42,0.6,0.54,0.96
		s0.21,0.72,0.25,1.1c0.02,0.18,0.04,0.37,0.05,0.55s0.01,0.37,0.01,0.54H162.65z M164.74,117.36c-0.31,0-0.58,0.04-0.81,0.13
		c-0.23,0.09-0.43,0.22-0.59,0.38c-0.16,0.16-0.29,0.37-0.39,0.61c-0.1,0.24-0.17,0.51-0.22,0.8h3.85
		c-0.02-0.28-0.06-0.53-0.13-0.77s-0.18-0.44-0.32-0.61c-0.14-0.17-0.33-0.31-0.55-0.4C165.34,117.4,165.07,117.36,164.74,117.36z"
		/>
</g>
</svg>
