<svg xmlns="http://www.w3.org/2000/svg" width="1001" height="299" viewBox="0 0 1001 299">
	<title>  UCL_horisontal_logo_rbg</title>
	<desc>  Created with Sketch.</desc>
	<g fill="none">
		<g fill="#00454E">
			<path d="M442.7 286.6C440.5 286.6 438.7 284.8 438.7 282.6 438.7 280.4 440.5 278.6 442.7 278.6 444.9 278.6 446.7 280.4 446.7 282.6 446.7 284.8 444.9 286.6 442.7 286.6Z"/>
			<path d="M442.7 264.4C440.5 264.4 438.7 262.6 438.7 260.4 438.7 258.2 440.5 256.4 442.7 256.4 444.9 256.4 446.7 258.2 446.7 260.4 446.7 262.7 444.9 264.4 442.7 264.4Z"/>
			<path d="M442.7 242.3C440.5 242.3 438.7 240.5 438.7 238.3 438.7 236.1 440.5 234.3 442.7 234.3 444.9 234.3 446.7 236.1 446.7 238.3 446.7 240.5 444.9 242.3 442.7 242.3Z"/>
			<path d="M442.7 220.1C440.5 220.1 438.7 218.3 438.7 216.1 438.7 213.9 440.5 212.1 442.7 212.1 444.9 212.1 446.7 213.9 446.7 216.1 446.7 218.4 444.9 220.1 442.7 220.1Z"/>
			<path d="M442.7 198C440.5 198 438.7 196.2 438.7 194 438.7 191.8 440.5 190 442.7 190 444.9 190 446.7 191.8 446.7 194 446.7 196.2 444.9 198 442.7 198Z"/>
			<path d="M985.7 224.5C984.7 224.1 983.8 223.4 983.1 222.6 982.4 221.8 981.8 220.7 981.4 219.5 981 218.3 980.8 216.8 980.8 215.2 980.8 213.7 981 212.4 981.4 211.2 981.8 210 982.4 209.1 983.1 208.3 983.8 207.5 984.7 206.9 985.7 206.5 986.7 206.1 987.7 205.9 988.8 205.9 990 205.9 991.1 206.1 992.3 206.4 993.5 206.7 994.4 207.3 995.3 208.1L995.3 222.5C995 222.9 994.7 223.2 994.3 223.5 993.9 223.8 993.4 224.1 992.9 224.3 992.4 224.5 991.8 224.7 991.1 224.9 990.4 225.1 989.7 225.1 989 225.1 987.9 225.1 986.8 224.9 985.7 224.5ZM995.4 226.7C995.4 228.5 995.2 230 994.9 231.1 994.6 232.2 994.1 233.2 993.5 233.9 992.9 234.6 992.1 235.1 991.1 235.3 990.1 235.5 989 235.7 987.7 235.7 986.9 235.7 986.1 235.6 985.3 235.5 984.5 235.4 983.7 235.1 983 234.9 982.3 234.6 981.6 234.3 980.9 233.9 980.2 233.5 979.7 233.1 979.2 232.7L976.7 236.5C977.5 237.2 978.3 237.7 979.3 238.2 980.3 238.7 981.2 239 982.1 239.3 983.1 239.6 984.1 239.8 985.1 239.9 986.1 240 987.1 240.1 988 240.1 992.2 240.1 995.2 239 997.2 236.9 999.2 234.8 1000.2 231.6 1000.2 227.5L1000.2 202.2 995.5 202.2 995.5 203.5C994.5 202.8 993.5 202.3 992.4 202 991.3 201.7 990.2 201.6 988.8 201.6 986.9 201.6 985.1 201.9 983.5 202.6 981.9 203.3 980.6 204.2 979.5 205.3 978.4 206.5 977.5 207.9 976.9 209.6 976.3 211.3 976 213.1 976 215.1 976 217.3 976.3 219.3 977 221.1 977.6 222.8 978.5 224.3 979.6 225.5 980.7 226.7 982.1 227.6 983.6 228.2 985.1 228.8 986.8 229.1 988.6 229.1 990.1 229.1 991.4 228.8 992.5 228.3 993.6 227.8 994.6 227.1 995.5 226.2L995.5 226.7 995.4 226.7ZM950.5 211.3C950.9 210.1 951.5 209 952.3 208.2 953.1 207.4 953.9 206.7 954.9 206.3 955.9 205.9 956.9 205.7 958.1 205.7 959.3 205.7 960.4 205.9 961.4 206.3 962.4 206.7 963.3 207.3 964 208.2 964.7 209.1 965.3 210.1 965.7 211.3 966.1 212.5 966.3 213.9 966.3 215.5 966.3 217 966.1 218.4 965.7 219.6 965.3 220.8 964.7 221.9 963.9 222.7 963.2 223.6 962.3 224.2 961.3 224.7 960.3 225.2 959.2 225.4 958 225.4 956.9 225.4 955.8 225.2 954.8 224.7 953.8 224.2 952.9 223.6 952.2 222.7 951.4 221.8 950.9 220.8 950.4 219.6 949.9 218.4 949.8 217 949.8 215.5 949.9 213.9 950.1 212.5 950.5 211.3ZM945.9 221.2C946.5 222.9 947.4 224.4 948.6 225.6 949.8 226.8 951.1 227.8 952.7 228.5 954.3 229.2 956.1 229.5 958.1 229.5 960 229.5 961.8 229.2 963.4 228.5 965 227.8 966.4 226.9 967.6 225.6 968.8 224.3 969.6 222.9 970.3 221.2 970.9 219.5 971.3 217.6 971.3 215.6 971.3 213.5 971 211.6 970.3 209.9 969.6 208.2 968.8 206.7 967.6 205.5 966.4 204.3 965.1 203.4 963.4 202.7 961.7 202 960 201.7 958.1 201.7 956.2 201.7 954.4 202 952.8 202.7 951.2 203.4 949.8 204.3 948.6 205.5 947.4 206.7 946.5 208.2 945.9 209.9 945.3 211.6 944.9 213.5 944.9 215.6 944.9 217.6 945.2 219.5 945.9 221.2ZM920.1 194.3C920.3 194.7 920.5 195.1 920.8 195.4 921.1 195.7 921.4 196 921.9 196.1 922.3 196.3 922.7 196.4 923.2 196.4 923.6 196.4 924.1 196.3 924.5 196.1 924.9 195.9 925.2 195.7 925.5 195.4 925.8 195.1 926 194.7 926.2 194.3 926.4 193.9 926.5 193.5 926.5 193 926.5 192.6 926.4 192.1 926.2 191.7 926 191.3 925.8 191 925.5 190.7 925.2 190.4 924.9 190.2 924.5 190 924.1 189.8 923.7 189.7 923.2 189.7 922.7 189.7 922.3 189.8 921.9 190 921.5 190.2 921.1 190.4 920.8 190.7 920.5 191 920.3 191.3 920.1 191.7 919.9 192.1 919.8 192.5 919.8 193 919.9 193.5 920 193.9 920.1 194.3ZM917 206.7L920.8 206.7 920.8 224.3 917 224.3 917 228.7 929.5 228.7 929.5 224.3 925.5 224.3 925.5 202.4 917 202.4 917 206.7ZM865.4 206.7L869.1 206.7 869.1 224.3 865.4 224.3 865.4 228.7 877.7 228.7 877.7 224.3 874 224.3 874 208.9C875 208.1 876.1 207.5 877.2 206.9 878.3 206.3 879.4 206.1 880.5 206.1 882.4 206.1 883.9 206.6 884.9 207.7 885.9 208.7 886.4 210.3 886.4 212.3L886.4 224.3 882.7 224.3 882.7 228.7 895 228.7 895 224.3 891.4 224.3 891.4 209C892.2 208.2 893.3 207.5 894.4 206.9 895.5 206.3 896.7 206.1 897.9 206.1 899.8 206.1 901.3 206.6 902.3 207.7 903.3 208.7 903.8 210.3 903.8 212.3L903.8 224.3 900.1 224.3 900.1 228.7 912.4 228.7 912.4 224.3 908.7 224.3 908.7 211.7C908.7 210 908.5 208.5 908.1 207.3 907.7 206.1 907.1 205 906.3 204.2 905.5 203.4 904.5 202.8 903.4 202.4 902.3 202 901 201.8 899.6 201.8 898.7 201.8 897.8 201.9 897 202.2 896.2 202.5 895.3 202.8 894.6 203.1 893.9 203.4 893.1 204 892.4 204.5 891.7 205 891 205.6 890.4 206.2 889.7 204.7 888.6 203.6 887.2 202.9 885.8 202.2 884.2 201.8 882.3 201.8 881.5 201.8 880.7 201.9 880 202.1 879.3 202.3 878.5 202.5 877.8 202.9 877.1 203.3 876.4 203.6 875.8 204 875.2 204.4 874.6 204.9 874 205.4L873.9 205.4 873.9 202.3 865.5 202.3 865.5 206.7 865.4 206.7ZM851.8 206.1C852.6 206.4 853.2 206.9 853.8 207.5 854.4 208.1 854.7 208.8 854.9 209.7 855.1 210.6 855.3 211.4 855.4 212.4L841.8 212.4C842 211.4 842.2 210.4 842.6 209.6 843 208.8 843.4 208 844 207.5 844.6 206.9 845.3 206.5 846.1 206.2 846.9 205.9 847.9 205.7 849 205.7 850 205.6 851 205.8 851.8 206.1ZM860.4 216.1C860.4 215.5 860.4 214.8 860.4 214.2 860.4 213.6 860.3 212.9 860.2 212.2 860 210.9 859.7 209.6 859.3 208.3 858.9 207 858.2 205.9 857.4 204.9 856.6 203.9 855.5 203.1 854.2 202.5 852.9 201.9 851.2 201.6 849.2 201.6 847.2 201.6 845.4 202 843.8 202.7 842.2 203.4 841 204.4 839.9 205.7 838.9 206.9 838.1 208.4 837.6 210.1 837.1 211.8 836.8 213.5 836.8 215.4 836.8 217.7 837.1 219.7 837.7 221.5 838.3 223.3 839.2 224.7 840.3 225.9 841.4 227.1 842.7 227.9 844.2 228.5 845.7 229.1 847.4 229.4 849.1 229.4 851 229.4 852.8 229.1 854.5 228.5 856.2 227.9 858 227 859.7 225.9L857.8 222.7C856.4 223.5 855 224.1 853.7 224.5 852.4 224.9 851.1 225.1 849.7 225.1 848 225.1 846.4 224.7 845 223.8 843.6 222.9 842.6 221.7 842 220 841.8 219.4 841.6 218.9 841.5 218.2 841.4 217.6 841.3 216.9 841.3 216.2L860.4 216.2 860.4 216.1ZM815.4 224.5C814.4 224.1 813.5 223.4 812.8 222.6 812.1 221.8 811.5 220.7 811.1 219.5 810.7 218.3 810.5 216.8 810.5 215.2 810.5 213.7 810.7 212.4 811.1 211.2 811.5 210 812.1 209.1 812.8 208.3 813.5 207.5 814.4 206.9 815.4 206.5 816.4 206.1 817.4 205.9 818.5 205.9 819.7 205.9 820.8 206.1 821.9 206.4 823 206.7 824 207.2 824.8 207.9L824.8 222.6C824 223.4 823.1 224.1 822.2 224.5 821.3 224.9 820.1 225.1 818.7 225.1 817.5 225.1 816.4 224.9 815.4 224.5ZM821.3 193.5L824.9 193.5 824.9 203.6C823.9 202.9 822.9 202.4 821.9 202.1 820.9 201.8 819.7 201.7 818.4 201.7 816.5 201.7 814.7 202 813.1 202.7 811.5 203.4 810.2 204.3 809.1 205.4 808 206.6 807.1 208 806.5 209.7 805.9 211.4 805.6 213.2 805.6 215.2 805.6 217.4 805.9 219.4 806.6 221.2 807.2 222.9 808.1 224.4 809.2 225.6 810.3 226.8 811.7 227.7 813.2 228.3 814.7 228.9 816.4 229.2 818.2 229.2 819.6 229.2 820.9 229 822 228.5 823.1 228 824.1 227.3 824.9 226.5L824.9 228.7 833.5 228.7 833.5 224.3 829.6 224.3 829.6 189.2 821.3 189.2 821.3 193.5ZM785.3 225.2C784.7 225 784.1 224.8 783.6 224.4 783.1 224.1 782.8 223.6 782.5 223.1 782.2 222.6 782.1 222 782.1 221.3 782.1 220.6 782.3 219.9 782.6 219.3 782.9 218.7 783.3 218.2 783.9 217.9 784.5 217.6 785.1 217.2 785.9 217 786.7 216.8 787.5 216.7 788.4 216.7L793.9 216.7 793.9 222.6C793.6 223 793.2 223.3 792.7 223.7 792.2 224 791.7 224.4 791.2 224.6 790.6 224.9 790 225.1 789.4 225.2 788.8 225.3 788.1 225.4 787.5 225.4 786.7 225.4 786 225.3 785.3 225.2ZM793.9 228.7L801.5 228.7 801.5 224.3 798.6 224.3 798.6 211.1C798.6 209.5 798.4 208 797.9 206.9 797.4 205.7 796.8 204.8 795.9 204 795 203.2 794 202.7 792.8 202.3 791.6 201.9 790.2 201.8 788.7 201.8 787.9 201.8 787 201.9 786.2 202 785.3 202.1 784.5 202.3 783.7 202.6 782.9 202.8 782.1 203.1 781.4 203.5 780.7 203.8 780 204.2 779.3 204.6L780.8 207.9C781.2 207.6 781.6 207.4 782.2 207.2 782.7 207 783.3 206.8 784 206.6 784.6 206.4 785.3 206.3 786 206.2 786.7 206.1 787.5 206 788.3 206 789.1 206 789.9 206.1 790.6 206.3 791.3 206.5 791.9 206.9 792.4 207.3 792.9 207.7 793.3 208.3 793.5 209 793.8 209.7 793.9 210.5 793.9 211.4L793.9 213.6C793.2 213.5 792.5 213.4 791.6 213.3 790.8 213.2 789.7 213.2 788.5 213.2 787.7 213.2 786.9 213.3 786.1 213.4 785.3 213.5 784.4 213.7 783.6 214 782.8 214.3 782 214.6 781.3 215 780.6 215.4 779.9 216 779.4 216.6 778.9 217.2 778.4 218 778.1 218.8 777.8 219.6 777.6 220.7 777.6 221.8 777.6 222.8 777.8 223.8 778.2 224.8 778.6 225.8 779.2 226.5 780 227.3 780.8 228 781.7 228.6 782.8 229 783.9 229.4 785.1 229.6 786.3 229.6 787.8 229.6 789.2 229.3 790.4 228.7 791.6 228.1 792.7 227.3 793.7 226.4L793.7 228.7 793.9 228.7ZM745 193.5L749.5 193.5 749.5 224.3 745.2 224.3 745.2 228.7 756.4 228.7 756.4 224.3 754.2 224.3 754.2 216.9 757.7 216.9 768.5 228.7 774.1 228.7 774.1 224.3 770.9 224.3 762.2 215 770.2 206.7 773.5 206.7 773.5 202.3 763.5 202.3 763.5 206.7 765.1 206.7 758.9 213.1 754.3 213.1 754.3 193.4 754.4 193.4 754.4 189 745 189 745 193.5ZM724.2 225.2C723.6 225 723 224.8 722.5 224.4 722 224.1 721.7 223.6 721.4 223.1 721.1 222.6 721 222 721 221.3 721 220.6 721.2 219.9 721.5 219.3 721.8 218.7 722.2 218.2 722.8 217.9 723.4 217.6 724 217.2 724.8 217 725.6 216.8 726.4 216.7 727.3 216.7L732.8 216.7 732.8 222.6C732.5 223 732.1 223.3 731.6 223.7 731.1 224 730.6 224.4 730.1 224.6 729.5 224.9 728.9 225.1 728.3 225.2 727.7 225.3 727 225.4 726.4 225.4 725.6 225.4 724.9 225.3 724.2 225.2ZM732.8 228.7L740.4 228.7 740.4 224.3 737.5 224.3 737.5 211.1C737.5 209.5 737.3 208 736.8 206.9 736.3 205.7 735.7 204.8 734.8 204 733.9 203.2 732.9 202.7 731.7 202.3 730.5 201.9 729.1 201.8 727.6 201.8 726.8 201.8 725.9 201.9 725.1 202 724.2 202.1 723.4 202.3 722.6 202.6 721.8 202.8 721 203.1 720.3 203.5 719.6 203.8 718.9 204.2 718.2 204.6L719.7 207.9C720.1 207.6 720.5 207.4 721.1 207.2 721.6 207 722.2 206.8 722.9 206.6 723.5 206.4 724.2 206.3 724.9 206.2 725.6 206.1 726.4 206 727.2 206 728 206 728.8 206.1 729.5 206.3 730.2 206.5 730.8 206.9 731.3 207.3 731.8 207.7 732.2 208.3 732.4 209 732.7 209.7 732.8 210.5 732.8 211.4L732.8 213.6C732.1 213.5 731.4 213.4 730.5 213.3 729.7 213.2 728.6 213.2 727.4 213.2 726.6 213.2 725.8 213.3 725 213.4 724.2 213.5 723.3 213.7 722.5 214 721.7 214.3 720.9 214.6 720.2 215 719.5 215.4 718.8 216 718.3 216.6 717.8 217.2 717.3 218 717 218.8 716.7 219.6 716.5 220.7 716.5 221.8 716.5 222.8 716.7 223.8 717.1 224.8 717.5 225.7 718.1 226.5 718.9 227.3 719.7 228 720.6 228.6 721.7 229 722.8 229.4 724 229.6 725.2 229.6 726.7 229.6 728.1 229.3 729.3 228.7 730.5 228.1 731.6 227.3 732.6 226.4L732.6 228.7 732.8 228.7ZM707.4 209.4L712.6 209.4 712.6 205 710.1 205C709.1 203.7 707.9 202.8 706.7 202.3 705.5 201.8 703.9 201.5 702 201.5 700.5 201.5 699.2 201.7 698.1 202.1 697 202.5 696 203 695.2 203.7 694.4 204.4 693.8 205.2 693.4 206.1 693 207 692.8 208.1 692.8 209.2 692.8 210.9 693.3 212.3 694.3 213.4 695.3 214.5 696.8 215.5 698.9 216.2L703.9 218.1C705.2 218.6 706.2 219.1 706.7 219.7 707.2 220.3 707.5 221 707.5 221.9 707.5 222.5 707.4 223 707.1 223.4 706.8 223.8 706.5 224.2 706 224.5 705.5 224.8 705 225 704.4 225.2 703.8 225.4 703.2 225.4 702.5 225.4 701.8 225.4 701.2 225.3 700.5 225.2 699.8 225.1 699.3 224.8 698.7 224.5 698.1 224.2 697.8 223.8 697.5 223.2 697.2 222.7 697 222.1 697 221.3L691.7 221.3 691.7 225.7 694.3 225.7C695 226.8 696 227.7 697.3 228.3 698.6 228.9 700.3 229.3 702.3 229.3 703.8 229.3 705.1 229.1 706.3 228.7 707.5 228.3 708.5 227.8 709.4 227.1 710.3 226.4 710.9 225.6 711.4 224.6 711.9 223.6 712.1 222.6 712.1 221.4 712.1 219.7 711.6 218.2 710.6 216.9 709.6 215.6 708 214.7 705.9 213.9L700.8 212.1C699.5 211.7 698.7 211.2 698.1 210.7 697.6 210.2 697.3 209.5 697.3 208.6 697.3 208.1 697.4 207.6 697.6 207.2 697.8 206.8 698.1 206.4 698.6 206.1 699.1 205.8 699.5 205.6 700.1 205.4 700.7 205.2 701.3 205.2 702 205.2 702.6 205.2 703.2 205.3 703.9 205.4 704.5 205.5 705.1 205.8 705.7 206.1 706.2 206.4 706.7 206.8 707 207.3 707.2 208.1 707.4 208.7 707.4 209.4ZM662.4 206.7L664.5 206.7 673.1 229 677.8 229 686.4 206.7 688.7 206.7 688.7 202.3 680.4 202.3 680.4 206.7 682 206.7 675.7 224.8 669.2 206.7 671.7 206.7 671.7 202.3 662.6 202.3 662.6 206.7 662.4 206.7ZM658.6 202.2C657.8 202.2 657 202.1 656.3 202.1 655.6 202.1 654.7 202.1 653.8 202.1 653.1 202.1 652.5 202.2 652 202.4 651.4 202.6 650.9 202.9 650.5 203.2 650 203.5 649.6 204 649.2 204.4 648.8 204.9 648.5 205.4 648.2 205.9L648.2 202.3 639.8 202.3 639.8 206.7 643.5 206.7 643.5 224.3 639.9 224.3 639.9 228.7 653 228.7 653 224.3 648.5 224.3 648.5 211.6C648.7 210.7 648.9 209.9 649.3 209.2 649.7 208.5 650.1 208 650.6 207.6 651.1 207.2 651.7 206.8 652.2 206.6 652.8 206.4 653.4 206.3 653.9 206.3L653.9 207.9 658.7 207.9 658.7 202.2 658.6 202.2ZM626 206.1C626.8 206.4 627.4 206.9 628 207.5 628.6 208.1 628.9 208.8 629.1 209.7 629.3 210.6 629.5 211.4 629.6 212.4L616 212.4C616.2 211.4 616.4 210.4 616.8 209.6 617.2 208.8 617.6 208 618.2 207.5 618.8 206.9 619.5 206.5 620.3 206.2 621.1 205.9 622.1 205.7 623.2 205.7 624.3 205.6 625.2 205.8 626 206.1ZM634.6 216.1C634.6 215.5 634.6 214.8 634.6 214.2 634.6 213.6 634.5 212.9 634.4 212.2 634.2 210.9 633.9 209.6 633.5 208.3 633.1 207 632.4 205.9 631.6 204.9 630.8 203.9 629.7 203.1 628.4 202.5 627.1 201.9 625.4 201.6 623.4 201.6 621.4 201.6 619.6 202 618 202.7 616.4 203.4 615.2 204.4 614.1 205.7 613.1 206.9 612.3 208.4 611.8 210.1 611.3 211.8 611 213.5 611 215.4 611 217.7 611.3 219.7 611.9 221.5 612.5 223.3 613.4 224.7 614.5 225.9 615.6 227.1 616.9 227.9 618.4 228.5 619.9 229.1 621.6 229.4 623.3 229.4 625.2 229.4 627 229.1 628.7 228.5 630.4 227.9 632.2 227 633.9 225.9L632 222.7C630.6 223.5 629.2 224.1 627.9 224.5 626.6 224.9 625.3 225.1 623.9 225.1 622.2 225.1 620.6 224.7 619.2 223.8 617.8 222.9 616.8 221.7 616.2 220 616 219.4 615.8 218.9 615.7 218.2 615.6 217.6 615.5 216.9 615.5 216.2L634.6 216.2 634.6 216.1ZM581.9 206.7L584 206.7 592.6 229 597.3 229 605.9 206.7 608.2 206.7 608.2 202.3 599.9 202.3 599.9 206.7 601.5 206.7 595.2 224.8 588.7 206.7 591.2 206.7 591.2 202.3 582.1 202.3 582.1 206.7 581.9 206.7ZM551.3 193.5L554.9 193.5 554.9 224.3 550.9 224.3 550.9 228.7 563.4 228.7 563.4 224.3 559.6 224.3 559.6 208.9C560.6 208.1 561.6 207.5 562.7 207 563.8 206.5 564.9 206.2 566 206.2 567.9 206.2 569.4 206.7 570.4 207.8 571.4 208.8 571.9 210.4 571.9 212.4L571.9 224.4 568.3 224.4 568.3 228.8 580.8 228.8 580.8 224.4 576.8 224.4 576.8 211.8C576.8 210.1 576.6 208.6 576.2 207.4 575.8 206.2 575.2 205.1 574.4 204.3 573.6 203.5 572.6 202.9 571.5 202.5 570.4 202.1 569.1 201.9 567.7 201.9 566.9 201.9 566.1 202 565.4 202.2 564.7 202.4 564 202.6 563.3 202.9 562.6 203.2 562 203.6 561.4 204 560.8 204.4 560.2 204.9 559.8 205.3L559.6 205.3 559.6 189.2 551.3 189.2 551.3 193.5ZM548.2 202.2C547.4 202.2 546.6 202.1 545.9 202.1 545.2 202.1 544.3 202.1 543.4 202.1 542.7 202.1 542.1 202.2 541.6 202.4 541 202.6 540.5 202.9 540.1 203.2 539.6 203.5 539.2 204 538.8 204.4 538.4 204.9 538.1 205.4 537.8 205.9L537.8 202.3 529.4 202.3 529.4 206.7 533.1 206.7 533.1 224.3 529.5 224.3 529.5 228.7 542.6 228.7 542.6 224.3 538.1 224.3 538.1 211.6C538.3 210.7 538.5 209.9 538.9 209.2 539.3 208.5 539.7 208 540.2 207.6 540.7 207.2 541.3 206.8 541.8 206.6 542.4 206.4 543 206.3 543.5 206.3L543.5 207.9 548.3 207.9 548.3 202.2 548.2 202.2ZM497.8 194.6L501.5 194.6 501.5 224.3 497.8 224.3 497.8 228.7 525.4 228.7 525.4 217.8 520.2 217.8 520.2 224.3 506.5 224.3 506.5 211.2 518 211.2 518 206.8 506.4 206.8 506.4 194.5 520.1 194.5 520.1 201 525.3 201 525.3 190.1 497.7 190.1 497.7 194.6 497.8 194.6Z"/>
			<path d="M981 264.1C981.8 264.4 982.4 264.9 983 265.5 983.6 266.1 983.9 266.8 984.1 267.7 984.3 268.6 984.5 269.4 984.6 270.4L971 270.4C971.2 269.4 971.4 268.4 971.8 267.6 972.2 266.8 972.6 266 973.2 265.5 973.8 264.9 974.5 264.5 975.3 264.2 976.1 263.9 977.1 263.7 978.2 263.7 979.2 263.6 980.2 263.8 981 264.1ZM989.6 274.1C989.6 273.5 989.6 272.8 989.6 272.2 989.6 271.6 989.5 270.9 989.4 270.2 989.2 268.9 988.9 267.6 988.5 266.3 988.1 265 987.4 263.9 986.6 262.9 985.8 261.9 984.7 261.1 983.4 260.5 982.1 259.9 980.4 259.6 978.4 259.6 976.4 259.6 974.6 260 973 260.7 971.4 261.4 970.2 262.4 969.1 263.7 968.1 264.9 967.3 266.4 966.8 268.1 966.3 269.8 966 271.5 966 273.4 966 275.7 966.3 277.7 966.9 279.5 967.5 281.3 968.4 282.7 969.5 283.9 970.6 285.1 971.9 285.9 973.4 286.5 974.9 287.1 976.6 287.4 978.3 287.4 980.2 287.4 982 287.1 983.7 286.5 985.4 285.9 987.2 285 988.9 283.9L987 280.7C985.6 281.5 984.2 282.1 982.9 282.5 981.6 282.9 980.3 283.1 978.9 283.1 977.2 283.1 975.6 282.7 974.2 281.8 972.8 280.9 971.8 279.7 971.2 278 971 277.4 970.8 276.9 970.7 276.2 970.6 275.6 970.5 274.9 970.5 274.2L989.6 274.2 989.6 274.1ZM950.1 251.5L953.9 251.5 953.9 282.3 950.1 282.3 950.1 286.7 962.6 286.7 962.6 282.3 958.6 282.3 958.6 247.2 950.1 247.2 950.1 251.5ZM925.8 269.3C926.2 268.1 926.8 267 927.6 266.2 928.4 265.4 929.2 264.7 930.2 264.3 931.2 263.9 932.2 263.7 933.4 263.7 934.6 263.7 935.7 263.9 936.7 264.3 937.7 264.7 938.6 265.3 939.3 266.2 940 267.1 940.6 268.1 941 269.3 941.4 270.5 941.6 271.9 941.6 273.5 941.6 275 941.4 276.4 941 277.6 940.6 278.8 940 279.9 939.2 280.7 938.5 281.6 937.6 282.2 936.6 282.7 935.6 283.2 934.5 283.4 933.3 283.4 932.2 283.4 931.1 283.2 930.1 282.7 929.1 282.2 928.2 281.6 927.5 280.7 926.7 279.8 926.2 278.8 925.7 277.6 925.2 276.4 925.1 275 925.1 273.5 925.1 271.9 925.4 270.5 925.8 269.3ZM921.1 279.2C921.7 280.9 922.6 282.4 923.8 283.6 925 284.8 926.3 285.8 927.9 286.5 929.5 287.2 931.3 287.5 933.3 287.5 935.2 287.5 937 287.2 938.6 286.5 940.2 285.8 941.6 284.9 942.8 283.6 944 282.3 944.8 280.9 945.5 279.2 946.1 277.5 946.5 275.6 946.5 273.6 946.5 271.5 946.2 269.6 945.5 267.9 944.8 266.2 944 264.7 942.8 263.5 941.6 262.3 940.3 261.4 938.6 260.7 936.9 260 935.2 259.7 933.3 259.7 931.4 259.7 929.6 260 928 260.7 926.4 261.4 925 262.3 923.8 263.5 922.6 264.7 921.7 266.2 921.1 267.9 920.5 269.6 920.1 271.5 920.1 273.6 920.2 275.6 920.5 277.5 921.1 279.2ZM888.3 251.5L892.8 251.5 892.8 282.3 888.5 282.3 888.5 286.7 899.7 286.7 899.7 282.3 897.5 282.3 897.5 274.9 901 274.9 911.8 286.7 917.4 286.7 917.4 282.3 914.2 282.3 905.5 273 913.5 264.7 916.8 264.7 916.8 260.3 906.8 260.3 906.8 264.7 908.4 264.7 902.2 271.1 897.6 271.1 897.6 251.4 897.7 251.4 897.7 247 888.4 247 888.4 251.5 888.3 251.5ZM879.1 267.4L884.3 267.4 884.3 263 881.8 263C880.8 261.7 879.6 260.8 878.4 260.3 877.2 259.8 875.6 259.5 873.7 259.5 872.2 259.5 870.9 259.7 869.8 260.1 868.7 260.5 867.7 261 866.9 261.7 866.1 262.4 865.5 263.2 865.1 264.1 864.7 265 864.5 266.1 864.5 267.2 864.5 268.9 865 270.3 866 271.4 867 272.5 868.5 273.5 870.6 274.2L875.6 276.1C876.9 276.6 877.9 277.1 878.4 277.7 878.9 278.3 879.2 279 879.2 279.9 879.2 280.5 879.1 281 878.8 281.4 878.5 281.8 878.2 282.2 877.7 282.5 877.2 282.8 876.7 283 876.1 283.2 875.5 283.4 874.9 283.4 874.2 283.4 873.5 283.4 872.9 283.3 872.2 283.2 871.5 283.1 871 282.8 870.4 282.5 869.8 282.2 869.5 281.8 869.2 281.2 868.9 280.7 868.7 280.1 868.7 279.3L863.4 279.3 863.4 283.7 866 283.7C866.7 284.8 867.7 285.7 869 286.3 870.3 286.9 872 287.3 874 287.3 875.5 287.3 876.8 287.1 878 286.7 879.2 286.3 880.2 285.8 881.1 285.1 882 284.4 882.6 283.6 883.1 282.6 883.6 281.6 883.8 280.6 883.8 279.4 883.8 277.7 883.3 276.2 882.3 274.9 881.3 273.6 879.7 272.7 877.6 271.9L872.5 270.1C871.2 269.7 870.4 269.2 869.8 268.7 869.3 268.2 869 267.5 869 266.6 869 266.1 869.1 265.6 869.3 265.2 869.5 264.8 869.8 264.4 870.3 264.1 870.8 263.8 871.2 263.6 871.8 263.4 872.4 263.2 873 263.2 873.7 263.2 874.3 263.2 874.9 263.3 875.6 263.4 876.2 263.5 876.8 263.8 877.4 264.1 877.9 264.4 878.4 264.8 878.7 265.3 878.9 266.1 879.1 266.7 879.1 267.4ZM852.2 252.2C852.4 252.6 852.6 252.9 852.8 253.2 853.1 253.5 853.4 253.7 853.8 253.9 854.2 254.1 854.6 254.1 855 254.1 855.4 254.1 855.8 254 856.2 253.9 856.6 253.7 856.9 253.5 857.2 253.2 857.5 252.9 857.7 252.6 857.8 252.2 857.9 251.8 858 251.4 858 251 858 250.6 857.9 250.2 857.8 249.9 857.7 249.6 857.4 249.2 857.2 249 857 248.8 856.6 248.5 856.2 248.4 855.8 248.2 855.5 248.2 855 248.2 854.6 248.2 854.2 248.3 853.8 248.4 853.4 248.6 853.1 248.8 852.8 249 852.5 249.2 852.3 249.6 852.2 249.9 852.1 250.2 852 250.6 852 251 851.9 251.5 852 251.9 852.2 252.2ZM848.8 264.7L852.5 264.7 852.5 288.1C852.5 290.1 852.2 291.7 851.5 292.9 850.8 294.1 849.7 294.8 848.2 295L848.7 298.5C850.1 298.5 851.3 298.2 852.4 297.7 853.5 297.2 854.4 296.6 855.1 295.7 855.8 294.8 856.4 293.8 856.8 292.6 857.2 291.4 857.4 290 857.4 288.5L857.4 260.2 848.9 260.2 848.9 264.7 848.8 264.7ZM823 273.5C823 271.9 823.2 270.5 823.6 269.3 824 268.1 824.6 267 825.4 266.2 826.2 265.4 827 264.7 828 264.3 829 263.9 830 263.7 831.2 263.7 832 263.7 832.7 263.8 833.4 264 834.1 264.2 834.8 264.5 835.4 264.9L824.3 279C823.9 278.2 823.6 277.4 823.4 276.5 823.1 275.6 823 274.6 823 273.5ZM839.5 273.5C839.5 275 839.3 276.4 838.9 277.6 838.5 278.8 837.9 279.8 837.1 280.7 836.3 281.6 835.5 282.2 834.5 282.7 833.5 283.2 832.4 283.4 831.2 283.4 830.4 283.4 829.7 283.3 829 283.1 828.3 282.9 827.6 282.6 827 282.1L838.2 267.8C838.6 268.6 838.9 269.4 839.2 270.4 839.5 271.4 839.5 272.3 839.5 273.5ZM817.1 288.2L822.2 288.2 824.2 285.6C825.2 286.2 826.3 286.6 827.4 287 828.5 287.4 829.8 287.5 831.2 287.5 833.2 287.5 835 287.2 836.6 286.5 838.2 285.8 839.6 284.9 840.8 283.7 841.9 282.5 842.8 281 843.4 279.3 844 277.6 844.3 275.7 844.3 273.6 844.3 271.7 844 269.9 843.5 268.3 843 266.7 842.2 265.3 841.1 264.1L846.5 257.2 841.5 257.2 838.1 261.5C837.1 260.9 836.1 260.5 834.9 260.2 833.7 259.9 832.5 259.7 831.2 259.7 829.3 259.7 827.5 260 825.9 260.7 824.3 261.4 822.9 262.3 821.7 263.6 820.5 264.8 819.6 266.3 819 268 818.4 269.7 818 271.6 818 273.7 818 275.6 818.3 277.4 818.8 279 819.3 280.6 820.1 282 821.1 283.2L817.1 288.2ZM784.1 251.5L787.7 251.5 787.7 282.3 783.7 282.3 783.7 286.7 796.2 286.7 796.2 282.3 792.4 282.3 792.4 266.9C793.4 266.1 794.4 265.5 795.5 265 796.6 264.5 797.7 264.2 798.8 264.2 800.7 264.2 802.2 264.7 803.2 265.8 804.2 266.8 804.7 268.4 804.7 270.4L804.7 282.4 801.1 282.4 801.1 286.8 813.6 286.8 813.6 282.4 809.6 282.4 809.6 269.8C809.6 268.1 809.4 266.6 809 265.4 808.6 264.2 808 263.1 807.2 262.3 806.4 261.5 805.4 260.9 804.3 260.5 803.2 260.1 801.9 259.9 800.5 259.9 799.7 259.9 798.9 260 798.2 260.2 797.5 260.4 796.8 260.6 796.1 260.9 795.4 261.2 794.8 261.6 794.2 262 793.6 262.4 793 262.9 792.6 263.3L792.4 263.3 792.4 247.2 784.1 247.2 784.1 251.5ZM774.4 267.4L779.6 267.4 779.6 263 777.1 263C776.1 261.7 774.9 260.8 773.7 260.3 772.5 259.8 770.9 259.5 769 259.5 767.5 259.5 766.2 259.7 765.1 260.1 764 260.5 763 261 762.2 261.7 761.4 262.4 760.8 263.2 760.4 264.1 760 265 759.8 266.1 759.8 267.2 759.8 268.9 760.3 270.3 761.3 271.4 762.3 272.5 763.8 273.5 765.9 274.2L770.9 276.1C772.2 276.6 773.2 277.1 773.7 277.7 774.2 278.3 774.5 279 774.5 279.9 774.5 280.5 774.4 281 774.1 281.4 773.8 281.8 773.5 282.2 773 282.5 772.5 282.8 772 283 771.4 283.2 770.8 283.4 770.2 283.4 769.5 283.4 768.8 283.4 768.2 283.3 767.5 283.2 766.8 283.1 766.3 282.8 765.7 282.5 765.1 282.2 764.8 281.8 764.5 281.2 764.2 280.7 764 280.1 764 279.3L758.7 279.3 758.7 283.7 761.3 283.7C762 284.8 763 285.7 764.3 286.3 765.6 286.9 767.3 287.3 769.3 287.3 770.8 287.3 772.1 287.1 773.3 286.7 774.5 286.3 775.5 285.8 776.4 285.1 777.3 284.4 777.9 283.6 778.4 282.6 778.9 281.6 779.1 280.6 779.1 279.4 779.1 277.7 778.6 276.2 777.6 274.9 776.6 273.6 775 272.7 772.9 271.9L767.8 270.1C766.5 269.7 765.7 269.2 765.1 268.7 764.6 268.2 764.3 267.5 764.3 266.6 764.3 266.1 764.4 265.6 764.6 265.2 764.8 264.8 765.1 264.4 765.6 264.1 766 263.8 766.5 263.6 767.1 263.4 767.7 263.2 768.3 263.2 769 263.2 769.6 263.2 770.2 263.3 770.9 263.4 771.5 263.5 772.1 263.8 772.7 264.1 773.2 264.4 773.7 264.8 774 265.3 774.2 266.1 774.4 266.7 774.4 267.4ZM742 286.7L754.3 286.7 754.3 282.3 750.6 282.3 750.6 269.7C750.6 268 750.4 266.5 750 265.3 749.6 264.1 749 263 748.2 262.2 747.4 261.4 746.4 260.8 745.3 260.4 744.2 260 742.9 259.8 741.5 259.8 740.7 259.8 739.9 259.9 739.1 260.1 738.3 260.3 737.6 260.5 736.9 260.9 736.2 261.3 735.5 261.6 734.9 262 734.3 262.4 733.7 262.9 733.1 263.4L733 263.4 733 260.3 724.6 260.3 724.6 264.7 728.3 264.7 728.3 282.3 724.6 282.3 724.6 286.7 737 286.7 737 282.3 733.3 282.3 733.3 266.9C734.3 266.1 735.4 265.5 736.5 264.9 737.6 264.3 738.7 264.1 739.8 264.1 741.7 264.1 743.2 264.6 744.2 265.7 745.2 266.7 745.7 268.3 745.7 270.3L745.7 282.3 742 282.3 742 286.7ZM700 269.3C700.4 268.1 701 267 701.8 266.2 702.6 265.4 703.4 264.7 704.4 264.3 705.4 263.9 706.4 263.7 707.6 263.7 708.8 263.7 709.9 263.9 710.9 264.3 711.9 264.7 712.8 265.3 713.5 266.2 714.2 267.1 714.8 268.1 715.2 269.3 715.6 270.5 715.8 271.9 715.8 273.5 715.8 275 715.6 276.4 715.2 277.6 714.8 278.8 714.2 279.9 713.4 280.7 712.7 281.6 711.8 282.2 710.8 282.7 709.8 283.2 708.7 283.4 707.5 283.4 706.4 283.4 705.3 283.2 704.3 282.7 703.3 282.2 702.4 281.6 701.7 280.7 700.9 279.8 700.4 278.8 699.9 277.6 699.4 276.4 699.3 275 699.3 273.5 699.4 271.9 699.6 270.5 700 269.3ZM695.4 279.2C696 280.9 696.9 282.4 698.1 283.6 699.3 284.8 700.6 285.8 702.2 286.5 703.8 287.2 705.6 287.5 707.6 287.5 709.5 287.5 711.3 287.2 712.9 286.5 714.5 285.8 715.9 284.9 717.1 283.6 718.3 282.3 719.1 280.9 719.8 279.2 720.4 277.5 720.8 275.6 720.8 273.6 720.8 271.5 720.5 269.6 719.8 267.9 719.1 266.2 718.3 264.7 717.1 263.5 715.9 262.3 714.6 261.4 712.9 260.7 711.2 260 709.5 259.7 707.6 259.7 705.7 259.7 703.9 260 702.3 260.7 700.7 261.4 699.3 262.3 698.1 263.5 696.9 264.7 696 266.2 695.4 267.9 694.8 269.6 694.4 271.5 694.4 273.6 694.4 275.6 694.7 277.5 695.4 279.2ZM681.9 252.3C682.1 252.7 682.3 253.1 682.6 253.4 682.9 253.7 683.2 254 683.7 254.1 684.1 254.3 684.5 254.4 685 254.4 685.4 254.4 685.9 254.3 686.3 254.1 686.7 253.9 687 253.7 687.3 253.4 687.6 253.1 687.8 252.7 688 252.3 688.2 251.9 688.3 251.5 688.3 251 688.3 250.6 688.2 250.1 688 249.7 687.8 249.3 687.6 249 687.3 248.7 687 248.4 686.7 248.2 686.3 248 685.9 247.8 685.5 247.7 685 247.7 684.5 247.7 684.1 247.8 683.7 248 683.3 248.2 682.9 248.4 682.6 248.7 682.3 249 682.1 249.3 681.9 249.7 681.7 250.1 681.6 250.5 681.6 251 681.7 251.5 681.8 251.9 681.9 252.3ZM678.8 264.7L682.6 264.7 682.6 282.3 678.8 282.3 678.8 286.7 691.3 286.7 691.3 282.3 687.3 282.3 687.3 260.4 678.7 260.4 678.7 264.7 678.8 264.7ZM669.1 267.4L674.3 267.4 674.3 263 671.8 263C670.8 261.7 669.6 260.8 668.4 260.3 667.2 259.8 665.6 259.5 663.7 259.5 662.2 259.5 660.9 259.7 659.8 260.1 658.7 260.5 657.7 261 656.9 261.7 656.1 262.4 655.5 263.2 655.1 264.1 654.7 265 654.5 266.1 654.5 267.2 654.5 268.9 655 270.3 656 271.4 657 272.5 658.5 273.5 660.6 274.2L665.6 276.1C666.9 276.6 667.9 277.1 668.4 277.7 668.9 278.3 669.2 279 669.2 279.9 669.2 280.5 669.1 281 668.8 281.4 668.5 281.8 668.2 282.2 667.7 282.5 667.2 282.8 666.7 283 666.1 283.2 665.5 283.4 664.9 283.4 664.2 283.4 663.5 283.4 662.9 283.3 662.2 283.2 661.5 283.1 661 282.8 660.4 282.5 659.8 282.2 659.5 281.8 659.2 281.2 658.9 280.7 658.7 280.1 658.7 279.3L653.4 279.3 653.4 283.7 656 283.7C656.7 284.8 657.7 285.7 659 286.3 660.3 286.9 662 287.3 664 287.3 665.5 287.3 666.8 287.1 668 286.7 669.2 286.3 670.2 285.8 671.1 285.1 672 284.4 672.6 283.6 673.1 282.6 673.6 281.6 673.8 280.6 673.8 279.4 673.8 277.7 673.3 276.2 672.3 274.9 671.3 273.6 669.7 272.7 667.6 271.9L662.5 270.1C661.2 269.7 660.4 269.2 659.8 268.7 659.3 268.2 659 267.5 659 266.6 659 266.1 659.1 265.6 659.3 265.2 659.5 264.8 659.8 264.4 660.3 264.1 660.8 263.8 661.2 263.6 661.8 263.4 662.4 263.2 663 263.2 663.7 263.2 664.3 263.2 664.9 263.3 665.6 263.4 666.2 263.5 666.8 263.8 667.4 264.1 667.9 264.4 668.4 264.8 668.7 265.3 668.9 266.1 669.1 266.7 669.1 267.4ZM644 267.4L649.2 267.4 649.2 263 646.7 263C645.7 261.7 644.5 260.8 643.3 260.3 642.1 259.8 640.5 259.5 638.6 259.5 637.1 259.5 635.8 259.7 634.7 260.1 633.6 260.5 632.6 261 631.8 261.7 631 262.4 630.4 263.2 630 264.1 629.6 265 629.4 266.1 629.4 267.2 629.4 268.9 629.9 270.3 630.9 271.4 631.9 272.5 633.4 273.5 635.5 274.2L640.5 276.1C641.8 276.6 642.8 277.1 643.3 277.7 643.8 278.3 644.1 279 644.1 279.9 644.1 280.5 644 281 643.7 281.4 643.4 281.8 643.1 282.2 642.6 282.5 642.1 282.8 641.6 283 641 283.2 640.4 283.4 639.8 283.4 639.1 283.4 638.4 283.4 637.8 283.3 637.1 283.2 636.4 283.1 635.9 282.8 635.3 282.5 634.7 282.2 634.4 281.8 634.1 281.2 633.8 280.7 633.6 280.1 633.6 279.3L628.3 279.3 628.3 283.7 630.9 283.7C631.6 284.8 632.6 285.7 633.9 286.3 635.2 286.9 636.9 287.3 638.9 287.3 640.4 287.3 641.7 287.1 642.9 286.7 644.1 286.3 645.1 285.8 646 285.1 646.9 284.4 647.5 283.6 648 282.6 648.5 281.6 648.7 280.6 648.7 279.4 648.7 277.7 648.2 276.2 647.2 274.9 646.2 273.6 644.6 272.7 642.5 271.9L637.4 270.1C636.1 269.7 635.3 269.2 634.7 268.7 634.2 268.2 633.9 267.5 633.9 266.6 633.9 266.1 634 265.6 634.2 265.2 634.4 264.8 634.7 264.4 635.2 264.1 635.7 263.8 636.1 263.6 636.7 263.4 637.3 263.2 637.9 263.2 638.6 263.2 639.2 263.2 639.8 263.3 640.5 263.4 641.1 263.5 641.7 263.8 642.3 264.1 642.8 264.4 643.3 264.8 643.6 265.3 643.8 266.1 644 266.7 644 267.4ZM614.8 264.1C615.6 264.4 616.2 264.9 616.8 265.5 617.4 266.1 617.7 266.8 617.9 267.7 618.1 268.6 618.3 269.4 618.4 270.4L604.8 270.4C605 269.4 605.2 268.4 605.6 267.6 606 266.8 606.4 266 607 265.5 607.6 264.9 608.3 264.5 609.1 264.2 609.9 263.9 610.9 263.7 612 263.7 613 263.6 614 263.8 614.8 264.1ZM623.4 274.1C623.4 273.5 623.4 272.8 623.4 272.2 623.4 271.6 623.3 270.9 623.2 270.2 623 268.9 622.7 267.6 622.3 266.3 621.9 265 621.2 263.9 620.4 262.9 619.6 261.9 618.5 261.1 617.2 260.5 615.9 259.9 614.2 259.6 612.2 259.6 610.2 259.6 608.4 260 606.8 260.7 605.2 261.4 604 262.4 602.9 263.7 601.9 264.9 601.1 266.4 600.6 268.1 600.1 269.8 599.8 271.5 599.8 273.4 599.8 275.7 600.1 277.7 600.7 279.5 601.3 281.3 602.2 282.7 603.3 283.9 604.4 285.1 605.7 285.9 607.2 286.5 608.7 287.1 610.4 287.4 612.1 287.4 614 287.4 615.8 287.1 617.5 286.5 619.2 285.9 621 285 622.7 283.9L620.8 280.7C619.4 281.5 618 282.1 616.7 282.5 615.4 282.9 614.1 283.1 612.7 283.1 611 283.1 609.4 282.7 608 281.8 606.6 280.9 605.6 279.7 605 278 604.8 277.4 604.6 276.9 604.5 276.2 604.4 275.6 604.3 274.9 604.3 274.2L623.4 274.2 623.4 274.1ZM590.7 256.1C590.7 254.4 591.1 253.1 591.9 252.3 592.7 251.4 593.8 251 595.2 251 596.1 251 597.1 251.1 597.9 251.3 598.7 251.5 599.5 251.7 600 252L601.4 248.6C601.1 248.4 600.7 248.3 600.2 248.1 599.7 247.9 599.3 247.8 598.7 247.6 598.1 247.5 597.5 247.3 596.8 247.3 596.1 247.3 595.3 247.2 594.4 247.2 593.1 247.2 591.9 247.4 590.9 247.8 589.9 248.2 589 248.7 588.2 249.5 587.4 250.3 586.9 251.2 586.5 252.3 586.1 253.4 585.9 254.8 585.8 256.3L585.8 260.4 581.5 260.4 581.5 264.2 585.8 264.2 585.8 282.3 581.8 282.3 581.8 286.7 594.6 286.7 594.6 282.3 590.5 282.3 590.5 264.2 596.6 264.2 596.6 260.4 590.5 260.4 590.5 256.1 590.7 256.1ZM557.4 269.3C557.8 268.1 558.4 267 559.2 266.2 560 265.4 560.8 264.7 561.8 264.3 562.8 263.9 563.8 263.7 565 263.7 566.2 263.7 567.3 263.9 568.3 264.3 569.3 264.7 570.2 265.3 570.9 266.2 571.6 267.1 572.2 268.1 572.6 269.3 573 270.5 573.2 271.9 573.2 273.5 573.2 275 573 276.4 572.6 277.6 572.2 278.8 571.6 279.9 570.8 280.7 570.1 281.6 569.2 282.2 568.2 282.7 567.2 283.2 566.1 283.4 564.9 283.4 563.8 283.4 562.7 283.2 561.7 282.7 560.7 282.2 559.8 281.6 559.1 280.7 558.3 279.8 557.8 278.8 557.3 277.6 556.8 276.4 556.7 275 556.7 273.5 556.8 271.9 557 270.5 557.4 269.3ZM552.8 279.2C553.4 280.9 554.3 282.4 555.5 283.6 556.7 284.8 558 285.8 559.6 286.5 561.2 287.2 563 287.5 565 287.5 566.9 287.5 568.7 287.2 570.3 286.5 571.9 285.8 573.3 284.9 574.5 283.6 575.7 282.3 576.5 280.9 577.2 279.2 577.8 277.5 578.2 275.6 578.2 273.6 578.2 271.5 577.9 269.6 577.2 267.9 576.5 266.2 575.7 264.7 574.5 263.5 573.3 262.3 572 261.4 570.3 260.7 568.6 260 566.9 259.7 565 259.7 563.1 259.7 561.3 260 559.7 260.7 558.1 261.4 556.7 262.3 555.5 263.5 554.3 264.7 553.4 266.2 552.8 267.9 552.2 269.6 551.8 271.5 551.8 273.6 551.8 275.6 552.1 277.5 552.8 279.2ZM547.8 260.2C547 260.2 546.2 260.1 545.5 260.1 544.8 260.1 543.9 260.1 543 260.1 542.3 260.1 541.7 260.2 541.2 260.4 540.6 260.6 540.1 260.9 539.7 261.2 539.2 261.5 538.8 262 538.4 262.4 538 262.9 537.7 263.4 537.4 263.9L537.4 260.3 529 260.3 529 264.7 532.7 264.7 532.7 282.3 529.1 282.3 529.1 286.7 542 286.7 542 282.3 537.5 282.3 537.5 269.6C537.7 268.7 537.9 267.9 538.3 267.2 538.7 266.5 539.1 266 539.6 265.6 540.1 265.2 540.7 264.8 541.2 264.6 541.8 264.4 542.4 264.3 542.9 264.3L542.9 265.9 547.7 265.9 547.7 260.2 547.8 260.2ZM512.7 252.6C515.2 252.6 517.1 253.1 518.2 254.2 519.4 255.3 519.9 256.7 519.9 258.6 519.9 259.6 519.7 260.5 519.4 261.2 519.1 261.9 518.6 262.6 518 263.1 517.4 263.6 516.7 264 515.9 264.3 515.1 264.6 514.2 264.7 513.2 264.7L506.3 264.7 506.3 252.6 512.7 252.6ZM497.8 252.6L501.5 252.6 501.5 282.3 497.8 282.3 497.8 286.7 510.3 286.7 510.3 282.3 506.4 282.3 506.4 268.8 513.2 268.8C515 268.8 516.6 268.5 518.1 268 519.6 267.5 520.8 266.7 521.9 265.8 523 264.9 523.8 263.8 524.3 262.5 524.9 261.3 525.2 259.9 525.2 258.5 525.2 256.8 524.9 255.3 524.3 254 523.7 252.7 522.9 251.6 521.8 250.7 520.7 249.8 519.5 249.2 518 248.7 516.6 248.3 515 248 513.2 248L497.6 248 497.6 252.6 497.8 252.6Z"/>
			<path d="M41.7 79.5C56.8 89.7 75.1 95.7 94.7 95.7 107.7 95.7 120.2 93 131.6 88.2 148.6 81 163 69 173.2 53.9 183.4 38.8 189.4 20.5 189.4 0.9L168.4 0.9 147.4 0.9C147.4 8.2 145.9 15.1 143.3 21.4 139.3 30.8 132.6 38.9 124.2 44.6 115.8 50.3 105.7 53.6 94.7 53.6 87.4 53.6 80.5 52.1 74.2 49.5 64.8 45.5 56.7 38.8 51 30.4 45.3 22 42 12 42 1L0 1C0 14 2.6 26.5 7.5 37.9 14.7 54.9 26.6 69.3 41.7 79.5Z"/>
			<path d="M242 244.6C234.7 244.6 227.8 243.1 221.5 240.5 212.1 236.5 204 229.8 198.3 221.4 192.6 213 189.3 202.9 189.3 191.9 189.3 184.6 190.8 177.7 193.4 171.4 197.4 162 204.1 153.9 212.5 148.2 220.9 142.5 231 139.2 242 139.2L242 97.2C229 97.2 216.5 99.8 205.1 104.7 188.1 111.9 173.7 123.9 163.5 139 153.3 154.1 147.3 172.4 147.3 192 147.3 205 149.9 217.5 154.8 228.9 162 245.9 174 260.3 189.1 270.5 204.2 280.7 222.5 286.7 242.1 286.7L242.1 265.7 242.1 244.6 242 244.6Z"/>
			<path d="M300.6 228.3C307.9 245.5 319.9 260 335.2 270.3 350.1 280.4 368.2 286.4 387.5 286.6L387.5 244.6C380.5 244.5 373.9 243 367.8 240.4 358.2 236.4 350 229.5 344.3 221 338.5 212.4 335.2 202.3 335.2 191.1L335.2 96.9 293.2 96.9 293.2 191.1C293.1 204.2 295.8 216.8 300.6 228.3Z"/>
		</g>
	</g>
</svg>
